# Blender v2.80 (sub 75) OBJ File: 'final big icon renderer.blend'
# www.blender.org
mtllib mr_garrison.mtl
o mr_garrison
v 0.000000 1.202009 -0.112552
v 0.152492 1.271914 -0.105546
v 0.134888 1.184563 0.062536
v 0.000000 1.149552 0.059046
v -0.152479 1.668898 -0.066037
v -0.240466 1.462326 -0.004100
v -0.240468 1.645595 0.049519
v -0.140750 1.490281 -0.166352
v -0.240468 1.437865 0.123137
v -0.181816 1.601322 0.257300
v -0.293248 1.492698 0.046073
v -0.275657 1.586300 0.055327
v -0.240468 1.302448 0.062492
v -0.258058 1.314126 0.063650
v 0.158355 1.733160 0.117184
v 0.240468 1.645595 0.049519
v 0.152479 1.668898 -0.066037
v 0.000000 1.706378 0.267759
v 0.000000 1.569844 0.336674
v 0.181816 1.601322 0.257300
v 0.000000 1.771623 -0.032227
v 0.000000 1.681688 -0.194441
v 0.240466 1.462326 -0.004100
v 0.140750 1.490281 -0.166352
v 0.000000 1.497255 -0.236378
v -0.158355 1.733160 0.117184
v -0.152492 1.271006 -0.093936
v -0.146619 1.227811 0.220085
v -0.199407 1.363398 0.280691
v 0.146619 1.227811 0.220085
v 0.000000 1.169454 0.214277
v 0.000000 1.294177 -0.209460
v -0.134888 1.184563 0.062536
v 0.000000 1.220840 0.290122
v 0.275657 1.587004 0.043766
v 0.293248 1.492698 0.046073
v 0.199407 1.364229 0.269093
v 0.240468 1.437865 0.123137
v 0.258058 1.314126 0.063650
v 0.240468 1.302448 0.062492
v 0.000000 1.768181 0.120670
v 0.000000 1.334075 0.336761
v 0.000000 1.343422 0.361278
v 0.218439 1.112700 0.025120
v 0.253276 1.203809 -0.054170
v 0.000000 1.194645 0.098333
v 0.000000 1.249029 -0.060542
v 0.762190 1.068260 -0.034945
v 0.700896 1.095425 -0.104163
v 0.697160 1.147753 -0.037214
v 0.451128 1.115847 -0.098349
v 0.652030 1.098739 -0.090973
v 0.643432 1.042712 -0.037740
v 0.446797 1.170829 -0.036473
v 0.425771 1.116449 -0.098068
v 0.655842 1.140945 -0.039591
v 0.649329 1.094156 0.026200
v 0.437242 1.114359 0.041246
v 0.313660 1.191155 -0.041181
v 0.218864 1.086620 -0.113703
v 0.239802 1.066496 -0.066870
v 0.425904 1.060079 -0.037186
v -0.109432 0.307714 0.179288
v 0.000447 0.347923 0.080041
v -0.116594 0.336622 0.185915
v 0.005394 0.035767 0.052918
v -0.112065 -0.014510 0.192390
v -0.041910 -0.005982 -0.118369
v 0.005152 -0.011129 0.051590
v -0.041652 0.040913 -0.117034
v -0.264726 -0.006145 -0.071266
v -0.258763 -0.010120 0.069431
v -0.222225 0.333766 0.092195
v -0.246321 0.688473 0.110130
v 0.000000 0.676744 0.215701
v -0.229349 0.425305 -0.044292
v -0.252185 0.700162 -0.077552
v -0.041568 0.415046 -0.085336
v 0.000000 0.711933 -0.136206
v 0.000000 0.688473 0.086672
v -0.223416 0.040686 -0.075822
v -0.217461 0.036507 0.070709
v -0.111814 0.033385 0.158545
v -0.000447 0.347923 0.080041
v 0.109432 0.307714 0.179288
v 0.116594 0.336622 0.185915
v 0.222225 0.333766 0.092195
v -0.005394 0.035767 0.052918
v 0.246321 0.688473 0.110130
v 0.229349 0.425305 -0.044292
v 0.252185 0.700162 -0.077552
v 0.041568 0.415046 -0.085336
v 0.041652 0.040913 -0.117034
v 0.223416 0.040686 -0.075822
v 0.217461 0.036507 0.070709
v 0.111814 0.033385 0.158545
v 0.112065 -0.014510 0.192390
v 0.258763 -0.010120 0.069431
v 0.264726 -0.006145 -0.071266
v 0.041910 -0.005982 -0.118369
v -0.005152 -0.011129 0.051590
v -0.643433 1.042712 -0.037740
v -0.649330 1.094156 0.026200
v -0.698972 1.090198 0.038733
v -0.652030 1.098739 -0.090973
v -0.681820 1.025349 -0.034934
v -0.697157 1.147753 -0.037214
v -0.655843 1.140945 -0.039591
v -0.700895 1.095425 -0.104163
v -0.437242 1.114359 0.041246
v -0.425904 1.060079 -0.037186
v -0.451128 1.115847 -0.098349
v -0.762191 1.068260 -0.034945
v -0.446797 1.170829 -0.036473
v -0.425771 1.116449 -0.098068
v -0.313660 1.191155 -0.041181
v -0.218864 1.086620 -0.113703
v -0.218439 1.112700 0.025120
v -0.239802 1.066496 -0.066870
v 0.129006 0.847542 -0.154418
v -0.129006 0.847542 -0.154418
v -0.252087 0.871493 -0.007875
v -0.234501 0.859618 -0.078231
v 0.234501 0.859618 -0.078231
v 0.252087 0.871493 -0.007875
v -0.128975 0.884473 0.226641
v 0.128975 0.884473 0.226641
v 0.234501 0.872045 0.074203
v -0.234501 0.872045 0.074203
v 0.000000 1.129451 0.152207
v 0.000000 1.087758 -0.138292
v 0.000000 1.182290 -0.136221
v 0.681818 1.025349 -0.034934
v 0.698972 1.090198 0.038733
v -0.253276 1.203809 -0.054170
v -0.252196 1.524431 0.084533
v -0.193551 1.354087 0.374067
v -0.193551 1.494154 0.388019
v 0.193551 1.354927 0.362478
v 0.252196 1.525174 0.072964
v 0.193551 1.494995 0.376430
vt 0.872633 0.110292
vt 0.878492 0.211246
vt 0.999023 0.117188
vt 0.999023 0.052734
vt 0.874342 0.822705
vt 0.933594 0.524902
vt 0.958984 0.817871
vt 0.814099 0.533516
vt 0.075195 0.795410
vt 0.075258 0.479072
vt 0.185245 0.772229
vt 0.094240 0.490913
vt 0.005493 0.549447
vt 0.028992 0.698680
vt 0.075258 0.251164
vt 0.051575 0.264652
vt 0.980911 0.951431
vt 0.958999 0.817884
vt 0.874037 0.822705
vt 0.374395 0.918532
vt 0.374395 0.748302
vt 0.563546 0.771252
vt 0.888380 0.985916
vt 0.785840 0.821973
vt 0.933791 0.525154
vt 0.814099 0.533516
vt 0.769787 0.533516
vt 0.999405 0.949844
vt 0.878492 0.211246
vt 0.933791 0.525154
vt 0.185245 0.154482
vt 0.103639 0.412299
vt 0.547066 0.067384
vt 0.563546 0.157473
vt 0.374395 0.067384
vt 0.803845 0.245487
vt 0.374395 0.000488
vt 0.201724 0.067384
vt 0.374395 0.146792
vt 0.719799 0.698680
vt 0.743297 0.549447
vt 0.654551 0.490913
vt 0.645151 0.414252
vt 0.673472 0.478035
vt 0.573007 0.932570
vt 0.673472 0.795483
vt 0.697154 0.264652
vt 0.673472 0.251164
vt 0.175784 0.932570
vt 0.989090 0.294072
vt 0.374395 0.999466
vt 0.175781 0.932129
vt 0.374023 0.969727
vt 0.572754 0.932129
vt 0.094238 0.490723
vt 0.028809 0.698242
vt 0.094238 0.479004
vt 0.211994 0.506476
vt 0.383551 0.416571
vt 0.382025 0.502449
vt 0.546235 0.506476
vt 0.075250 0.251138
vt 0.248535 0.119141
vt 0.188477 0.377441
vt 0.188477 0.195801
vt 0.958999 0.724804
vt 0.257812 0.049805
vt 0.508789 0.038086
vt 0.578125 0.184570
vt 0.518066 0.109863
vt 0.578125 0.364746
vt 0.958984 0.724609
vt 0.933594 0.524902
vt 0.988770 0.293945
vt 0.999023 0.117188
vt 0.697083 0.266432
vt 0.999818 0.115787
vt 1.005435 0.051579
vt 0.500008 1.000015
vt 1.000015 0.000000
vt 1.000015 1.000015
vt 0.500008 0.000000
vt 0.000000 1.000015
vt 0.000000 0.000000
vt 0.720043 0.519722
vt 0.780273 0.576172
vt 0.473030 0.558297
vt 0.472656 0.604981
vt 0.253605 0.156252
vt 0.231632 0.168643
vt 0.208133 0.190127
vt 0.115724 0.342229
vt 0.111940 0.277165
vt 0.137026 0.287053
vt 0.024231 0.357244
vt 0.116640 0.357122
vt 0.024537 0.287053
vt 0.111940 0.299565
vt 0.116640 0.357122
vt 0.066285 0.510262
vt 0.215763 0.512215
vt 0.165408 0.576547
vt 0.215763 0.503731
vt 0.182071 0.510262
vt 0.153567 0.357244
vt 0.610239 0.136538
vt 0.647471 0.143679
vt 0.610239 0.143557
vt 0.647471 0.070924
vt 0.720348 0.714427
vt 0.747692 0.916579
vt 0.764050 0.807141
vt 0.633555 0.070924
vt 0.663035 0.887037
vt 0.663767 0.795117
vt 0.567086 0.141787
vt 0.574716 0.227970
vt 0.647532 0.225589
vt 0.566476 0.138796
vt 0.574105 0.231876
vt 0.633555 0.137881
vt 0.647532 0.233158
vt 0.647593 0.228458
vt 0.633301 0.070996
vt 0.573730 0.070996
vt 0.574707 0.070996
vt 0.609863 0.070996
vt 0.678721 0.795117
vt 0.720348 0.739452
vt 0.678050 0.887037
vt 0.747692 0.916579
vt 0.764050 0.807141
vt 0.647654 0.143679
vt 0.684947 0.137087
vt 0.684947 0.143557
vt 0.728099 0.141787
vt 0.647461 0.070996
vt 0.720409 0.227970
vt 0.728710 0.138796
vt 0.721019 0.231876
vt 0.661631 0.137881
vt 0.661621 0.070996
vt 0.720703 0.070996
vt 0.720215 0.070996
vt 0.684570 0.070996
vt 0.807996 0.714427
vt 0.864576 0.795117
vt 0.849561 0.795117
vt 0.807996 0.739452
vt 0.865248 0.887037
vt 0.850294 0.887037
vt 0.780652 0.916579
vt 0.780652 0.916579
vt 0.764294 0.807141
vt 0.764294 0.807141
vt 0.610239 0.070924
vt 0.684947 0.070924
vt 0.647654 0.070924
vt 0.240238 0.205997
vt 0.194156 0.214481
vt 0.257450 0.473274
vt 0.273869 0.527352
vt 0.164286 0.530786
vt 0.188840 0.507633
vt 0.214355 0.253418
vt 0.225098 0.240234
vt 0.240726 0.202884
vt 0.205566 0.240234
vt 0.263066 0.196597
vt 0.208133 0.190127
vt 0.214355 0.193848
vt 0.231632 0.168643
vt 0.116640 0.357122
vt 0.137026 0.287053
vt 0.153567 0.357244
vt 0.111940 0.277165
vt 0.115541 0.338689
vt 0.253605 0.156252
vt 0.111940 0.299565
vt 0.024231 0.357244
vt 0.024537 0.287053
vt 0.116640 0.357122
vt 0.066285 0.510262
vt 0.215763 0.503731
vt 0.215763 0.512215
vt 0.182071 0.510262
vt 0.227176 0.373358
vt 0.173770 0.287968
vt 0.120180 0.373358
vt 0.165347 0.282780
vt 0.152224 0.377203
vt 0.176516 0.373663
vt 0.769421 0.373663
vt 0.793713 0.377203
vt 0.781933 0.282780
vt 0.308782 0.387396
vt 0.473579 0.267399
vt 0.637156 0.387396
vt 0.779370 0.273259
vt 0.769421 0.381415
vt 0.167910 0.273259
vt 0.176516 0.381415
vt 0.756786 0.516365
vt 0.472969 0.518746
vt 0.173709 0.478096
vt 0.173709 0.523201
vt 0.024414 0.286621
vt 0.111816 0.276855
vt 0.263066 0.196597
vt 0.253483 0.214481
vt 0.205566 0.240234
vt 0.240726 0.202884
vt 0.240238 0.225223
vt 0.065740 0.528331
vt 0.035676 0.480276
vt 0.084105 0.472355
vt 0.165039 0.576172
vt 0.229409 0.371601
vt 0.273930 0.283200
vt 0.073240 0.283200
vt 0.120120 0.373050
vt 0.308590 0.369140
vt 0.636720 0.369140
vt 0.718260 0.511230
vt 0.215330 0.503420
vt 0.178470 0.510262
vt 0.215760 0.512210
vt 0.089906 0.473274
vt 0.173709 0.548653
vt 0.073487 0.527352
vt 0.500008 1.000015
vt 1.000015 0.000000
vt 1.000015 1.000015
vt 0.500008 0.000000
vt 0.000000 0.000000
vt 0.000000 1.000015
vt 0.875013 0.075746
vt 0.187503 0.231998
vt 0.187503 0.075746
vt 0.187500 0.230469
vt 0.875013 0.075746
vt 0.187500 0.074219
vt 0.000000 0.000000
vt 1.998932 0.999466
vt 0.000000 0.998047
vt 2.000031 0.000000
vn -0.0118 -0.8510 -0.5251
vn 0.6538 -0.4947 -0.5726
vn 0.5143 -0.8544 -0.0747
vn 0.0000 -0.9964 -0.0850
vn -0.6601 0.5561 -0.5051
vn -0.7916 -0.0259 -0.6105
vn -0.8769 0.4631 -0.1289
vn -0.6786 0.0558 -0.7323
vn -0.9059 -0.0535 0.4200
vn -0.6792 0.3452 0.6477
vn -0.9898 0.0465 -0.1349
vn -0.8984 0.4338 0.0688
vn -0.8641 -0.5025 -0.0290
vn -0.7427 -0.6689 0.0305
vn 0.5460 0.8209 0.1673
vn 0.8769 0.4641 -0.1251
vn 0.6601 0.5561 -0.5051
vn -0.0000 0.7184 0.6957
vn 0.0081 0.2554 0.9668
vn 0.6783 0.3327 0.6551
vn 0.0000 0.9553 -0.2956
vn -0.0000 0.5919 -0.8060
vn 0.7910 -0.0286 -0.6112
vn 0.6759 0.0659 -0.7340
vn -0.0000 0.0484 -0.9988
vn -0.5460 0.8209 0.1673
vn -0.6613 -0.4997 -0.5595
vn -0.5979 -0.6512 0.4673
vn -0.7486 -0.2234 0.6243
vn 0.6011 -0.6407 0.4776
vn -0.0000 -0.9324 0.3615
vn -0.0148 -0.4269 -0.9042
vn -0.5159 -0.8529 -0.0798
vn 0.0000 -0.5995 0.8004
vn 0.8877 0.4352 -0.1502
vn 0.9953 0.0397 -0.0887
vn 0.7645 -0.2174 0.6068
vn 0.9054 -0.0490 0.4218
vn 0.7427 -0.6689 0.0305
vn 0.8650 -0.5013 -0.0201
vn 0.0000 0.9786 0.2059
vn 0.0131 -0.7577 0.6525
vn 0.0198 -0.4870 0.8732
vn 0.5463 0.2474 0.8002
vn 0.3456 0.9191 -0.1894
vn 0.0000 0.7700 0.6381
vn 0.0000 0.9813 -0.1923
vn 0.9719 -0.2352 -0.0085
vn 0.2698 0.0667 -0.9606
vn 0.3009 0.9537 -0.0020
vn 0.0108 0.0332 -0.9994
vn -0.1186 0.0761 -0.9900
vn -0.2241 -0.9715 -0.0774
vn 0.1401 0.9894 -0.0391
vn 0.0580 0.0031 -0.9983
vn -0.0244 0.9984 -0.0512
vn -0.1036 0.0295 0.9942
vn 0.0060 -0.0127 0.9999
vn 0.0651 0.9968 -0.0469
vn 0.3682 0.0436 -0.9287
vn 0.7828 -0.6020 -0.1575
vn -0.0568 -0.9977 -0.0371
vn 0.0855 -0.1283 0.9881
vn 0.9664 -0.0751 0.2459
vn -0.0672 -0.2012 0.9772
vn 0.9632 -0.0115 0.2686
vn 0.0669 -0.3663 0.9281
vn 0.4198 -0.5628 -0.7120
vn 0.7651 -0.6136 0.1954
vn 0.5135 0.0535 -0.8564
vn -0.8218 -0.3365 -0.4598
vn -0.8630 -0.3648 0.3494
vn -0.8966 -0.0689 0.4376
vn -0.8576 -0.0371 0.5130
vn -0.0000 -0.1298 0.9915
vn -0.7958 -0.0640 -0.6022
vn -0.8046 -0.1017 -0.5851
vn 0.5519 -0.0360 -0.8332
vn 0.0000 -0.2500 -0.9682
vn 0.0000 -0.7082 -0.7060
vn -0.6689 0.2541 -0.6986
vn -0.8272 0.3168 0.4640
vn 0.0705 0.2796 0.9575
vn -0.9664 -0.0751 0.2459
vn -0.0855 -0.1283 0.9881
vn 0.0672 -0.2012 0.9772
vn 0.8966 -0.0689 0.4376
vn -0.9632 -0.0115 0.2686
vn 0.8576 -0.0371 0.5130
vn 0.7958 -0.0640 -0.6022
vn 0.8046 -0.1017 -0.5851
vn -0.5519 -0.0360 -0.8332
vn -0.5135 0.0535 -0.8564
vn 0.6689 0.2541 -0.6986
vn 0.8272 0.3168 0.4640
vn -0.0705 0.2796 0.9575
vn -0.0669 -0.3663 0.9281
vn 0.8630 -0.3648 0.3494
vn 0.8218 -0.3365 -0.4598
vn -0.4198 -0.5628 -0.7120
vn -0.7651 -0.6136 0.1954
vn 0.2241 -0.9715 -0.0774
vn 0.1036 0.0295 0.9942
vn -0.2592 0.0241 0.9655
vn 0.1186 0.0761 -0.9900
vn 0.0119 -0.9998 -0.0136
vn -0.3009 0.9537 -0.0020
vn 0.0245 0.9984 -0.0512
vn -0.2698 0.0667 -0.9606
vn -0.0060 -0.0127 0.9999
vn 0.0568 -0.9977 -0.0371
vn -0.0108 0.0332 -0.9994
vn -0.9719 -0.2352 -0.0085
vn -0.1401 0.9894 -0.0391
vn -0.0580 0.0031 -0.9983
vn -0.0651 0.9968 -0.0469
vn -0.3682 0.0436 -0.9287
vn -0.5463 0.2474 0.8002
vn -0.7828 -0.6020 -0.1575
vn 0.2627 -0.0713 -0.9622
vn -0.2627 -0.0713 -0.9622
vn -0.9977 0.0674 0.0013
vn -0.8283 0.0217 -0.5599
vn 0.8283 0.0217 -0.5599
vn 0.9977 0.0674 0.0013
vn -0.4307 0.1214 0.8943
vn 0.4307 0.1214 0.8943
vn 0.9122 0.1394 0.3854
vn -0.9122 0.1394 0.3854
vn 0.0000 0.5425 0.8401
vn 0.0000 0.0651 -0.9979
vn 0.0000 0.4306 -0.9026
vn -0.0119 -0.9998 -0.0136
vn 0.2592 0.0241 0.9655
vn -0.3456 0.9191 -0.1894
vn -0.9820 -0.0187 0.1879
vn -0.5163 -0.0849 0.8522
vn -0.6254 -0.0773 0.7764
vn 0.5487 -0.0829 0.8319
vn 0.9820 -0.0187 0.1879
vn 0.6482 -0.0755 0.7578
usemtl garrison_face
s 1
f 1/1/1 2/2/2 3/3/3
f 4/4/4 1/1/1 3/3/3
f 5/5/5 6/6/6 7/7/7
f 5/5/5 8/8/8 6/6/6
f 7/9/7 9/10/9 10/11/10
f 6/12/6 11/13/11 12/14/12
f 6/12/6 13/15/13 14/16/14
f 15/17/15 16/18/16 17/19/17
f 18/20/18 19/21/19 20/22/20
f 21/23/21 17/19/17 22/24/22
f 15/17/15 17/19/17 21/23/21
f 17/19/17 23/25/23 24/26/24
f 16/18/16 23/25/23 17/19/17
f 22/24/22 24/26/24 25/27/25
f 17/19/17 24/26/24 22/24/22
f 21/23/21 5/5/5 26/28/26
f 21/23/21 22/24/22 5/5/5
f 22/24/22 25/27/25 8/8/8
f 26/28/26 5/5/5 7/7/7
f 22/24/22 8/8/8 5/5/5
f 27/29/27 6/30/6 8/8/8
f 9/10/9 28/31/28 29/32/29
f 3/33/3 30/34/30 31/35/31
f 27/29/27 8/8/8 32/36/32
f 4/37/4 31/35/31 33/38/33
f 32/36/32 8/8/8 25/27/25
f 31/35/31 34/39/34 28/31/28
f 31/35/31 30/34/30 34/39/34
f 10/11/10 9/10/9 29/32/29
f 35/40/35 36/41/36 23/42/23
f 37/43/37 30/34/30 38/44/38
f 37/43/37 38/44/38 20/22/20
f 15/45/15 20/22/20 16/46/16
f 31/35/31 28/31/28 33/38/33
f 32/36/32 24/26/24 2/2/2
f 39/47/39 40/48/40 23/42/23
f 36/41/36 39/47/39 23/42/23
f 32/36/32 25/27/25 24/26/24
f 26/49/26 10/11/10 18/20/18
f 20/22/20 38/44/38 16/46/16
f 13/50/13 6/30/6 27/29/27
f 4/37/4 3/33/3 31/35/31
f 1/1/1 32/36/32 2/2/2
f 1/1/1 27/29/27 32/36/32
f 18/20/18 10/11/10 19/21/19
f 41/51/41 26/52/26 18/20/18
f 41/51/41 21/53/21 26/52/26
f 26/52/26 7/9/7 10/11/10
f 41/51/41 15/54/15 21/53/21
f 41/51/41 18/20/18 15/54/15
f 18/20/18 20/22/20 15/54/15
f 6/55/6 14/16/14 11/13/11
f 12/56/12 9/57/9 7/9/7
f 11/13/11 9/57/9 12/56/12
f 29/58/29 42/59/42 43/60/43
f 43/60/43 42/59/42 37/61/37
f 14/16/14 13/62/13 9/57/9
f 9/57/9 11/13/11 14/16/14
f 28/63/28 9/64/9 13/65/13
f 6/30/6 12/66/12 7/7/7
f 33/67/33 28/63/28 13/65/13
f 3/68/3 40/69/40 30/70/30
f 40/69/40 38/71/38 30/70/30
f 16/18/16 35/72/35 23/73/23
f 3/3/3 2/2/2 40/74/40
f 2/2/2 23/73/23 40/74/40
f 2/2/2 24/26/24 23/73/23
f 33/75/33 27/29/27 1/1/1
f 33/75/33 13/50/13 27/29/27
f 39/47/39 38/76/38 40/48/40
f 36/41/36 38/76/38 39/47/39
f 35/40/35 38/76/38 36/41/36
f 16/46/16 38/76/38 35/40/35
f 4/77/4 33/78/33 1/1/1
usemtl garrison_eyes
f 19/79/19 37/80/37 20/81/20
f 19/79/19 43/82/43 37/80/37
f 10/83/10 29/84/29 19/79/19
f 19/79/19 29/84/29 43/82/43
usemtl garrison_tex
f 44/85/44 45/86/45 46/87/46
f 45/86/45 47/88/47 46/87/46
f 48/89/48 49/90/49 50/91/50
f 51/92/51 52/93/52 53/94/53
f 54/95/54 51/92/51 55/96/55
f 51/92/51 54/95/54 56/97/56
f 57/98/57 56/97/56 58/99/58
f 58/99/58 56/97/56 54/95/54
f 55/96/55 59/100/59 54/95/54
f 44/101/44 59/100/59 45/102/45
f 59/100/59 44/101/44 58/99/58
f 60/103/60 59/100/59 55/96/55
f 61/104/61 60/103/60 55/96/55
f 54/95/54 59/100/59 58/99/58
f 61/104/61 62/105/62 58/99/58
f 62/105/62 61/104/61 55/96/55
f 63/106/63 64/107/64 65/108/65
f 64/107/64 63/106/63 66/109/66
f 67/110/67 68/111/68 69/112/69
f 66/109/66 70/113/70 64/107/64
f 67/110/67 71/114/71 68/111/68
f 72/115/72 71/114/71 67/110/67
f 73/116/73 65/108/65 74/117/74
f 74/117/74 65/108/65 75/118/75
f 76/119/76 73/116/73 77/120/77
f 77/120/77 73/116/73 74/117/74
f 78/121/78 76/119/76 79/122/79
f 79/122/79 76/119/76 77/120/77
f 64/107/64 78/121/78 80/123/80
f 80/123/80 78/121/78 79/122/79
f 65/108/65 64/107/64 75/118/75
f 75/118/75 64/107/64 80/123/80
f 63/106/63 65/108/65 73/116/73
f 64/107/64 70/124/70 78/121/78
f 70/124/70 81/125/81 78/121/78
f 78/121/78 81/125/81 76/119/76
f 81/125/81 82/126/82 76/119/76
f 82/126/82 83/127/83 73/116/73
f 76/119/76 82/126/82 73/116/73
f 72/115/72 67/110/67 82/128/82
f 82/128/82 67/110/67 83/129/83
f 71/114/71 72/115/72 81/130/81
f 81/130/81 72/115/72 82/128/82
f 68/111/68 71/114/71 70/131/70
f 70/131/70 71/114/71 81/130/81
f 69/112/69 68/111/68 66/132/66
f 66/132/66 68/111/68 70/131/70
f 67/110/67 69/112/69 83/129/83
f 83/129/83 69/112/69 66/132/66
f 84/133/84 85/134/85 86/135/86
f 87/136/87 86/135/86 85/134/85
f 85/134/85 84/133/84 88/137/88
f 86/135/86 87/136/87 89/138/89
f 86/135/86 89/138/89 75/118/75
f 87/136/87 90/139/90 91/140/91
f 87/136/87 91/140/91 89/138/89
f 90/139/90 92/141/92 79/122/79
f 90/139/90 79/122/79 91/140/91
f 92/141/92 84/133/84 80/123/80
f 92/141/92 80/123/80 79/122/79
f 84/133/84 86/135/86 75/118/75
f 84/133/84 75/118/75 80/123/80
f 93/142/93 88/137/88 84/133/84
f 93/142/93 84/133/84 92/141/92
f 94/143/94 93/142/93 92/141/92
f 94/143/94 92/141/92 90/139/90
f 95/144/95 94/143/94 90/139/90
f 96/145/96 95/144/95 87/136/87
f 95/144/95 90/139/90 87/136/87
f 97/146/97 98/147/98 95/148/95
f 97/146/97 95/148/95 96/149/96
f 98/147/98 99/150/99 94/151/94
f 98/147/98 94/151/94 95/148/95
f 99/150/99 100/152/100 93/153/93
f 99/150/99 93/153/93 94/151/94
f 100/152/100 101/154/101 88/155/88
f 100/152/100 88/155/88 93/153/93
f 101/154/101 97/146/97 96/149/96
f 101/154/101 96/149/96 88/155/88
f 99/150/99 98/147/98 97/146/97
f 100/152/100 97/146/97 101/154/101
f 99/150/99 97/146/97 100/152/100
f 73/116/73 83/156/83 63/106/63
f 63/106/63 83/156/83 66/109/66
f 85/134/85 96/157/96 87/136/87
f 88/158/88 96/157/96 85/134/85
f 49/90/49 52/159/52 56/160/56
f 60/161/60 45/162/45 59/100/59
f 62/105/62 53/94/53 58/99/58
f 58/99/58 53/94/53 57/98/57
f 51/92/51 62/105/62 55/96/55
f 62/105/62 51/92/51 53/94/53
f 44/163/44 61/164/61 58/99/58
f 102/165/102 103/166/103 104/167/104
f 105/168/105 102/165/102 106/169/106
f 104/167/104 106/169/106 102/165/102
f 107/170/107 104/167/104 103/166/103
f 103/166/103 108/171/108 107/170/107
f 106/169/106 109/172/109 105/168/105
f 108/171/108 105/168/105 109/172/109
f 109/172/109 107/170/107 108/171/108
f 110/173/110 102/174/102 111/175/111
f 102/174/102 105/176/105 112/177/112
f 113/178/113 104/167/104 107/170/107
f 103/179/103 102/174/102 110/173/110
f 113/178/113 106/169/106 104/167/104
f 114/180/114 112/177/112 108/181/108
f 112/177/112 114/180/114 115/182/115
f 110/173/110 108/181/108 103/179/103
f 114/180/114 108/181/108 110/173/110
f 111/175/111 112/177/112 115/182/115
f 115/182/115 116/183/116 117/184/117
f 114/180/114 116/183/116 115/182/115
f 110/173/110 116/183/116 114/180/114
f 110/173/110 118/185/118 116/183/116
f 115/182/115 119/186/119 111/175/111
f 115/182/115 117/184/117 119/186/119
f 110/173/110 119/186/119 118/185/118
f 110/173/110 111/175/111 119/186/119
f 120/187/120 79/188/79 121/189/121
f 77/190/77 122/191/122 123/192/123
f 124/193/124 125/194/125 91/195/91
f 126/196/126 75/197/75 127/198/127
f 91/195/91 125/194/125 89/199/89
f 125/194/125 128/200/128 89/199/89
f 77/190/77 74/201/74 122/191/122
f 74/201/74 129/202/129 122/191/122
f 44/85/44 128/200/128 61/203/61
f 125/194/125 61/203/61 128/200/128
f 127/198/127 130/204/130 126/196/126
f 121/189/121 131/205/131 120/187/120
f 132/206/132 45/162/45 60/161/60
f 56/207/56 52/208/52 51/92/51
f 133/209/133 53/210/53 52/211/52
f 52/211/52 49/90/49 133/209/133
f 134/212/134 57/213/57 53/210/53
f 53/210/53 133/209/133 134/212/134
f 50/91/50 56/160/56 57/213/57
f 57/213/57 134/212/134 50/91/50
f 50/91/50 134/212/134 48/89/48
f 56/160/56 50/91/50 49/90/49
f 133/209/133 49/90/49 48/89/48
f 134/212/134 133/209/133 48/89/48
f 112/177/112 105/176/105 108/181/108
f 113/178/113 109/172/109 106/169/106
f 113/178/113 107/170/107 109/172/109
f 112/177/112 111/175/111 102/174/102
f 135/214/135 117/215/117 116/216/116
f 135/217/135 116/183/116 118/185/118
f 120/218/120 91/219/91 79/188/79
f 77/220/77 121/221/121 79/188/79
f 75/197/75 126/196/126 74/201/74
f 77/190/77 123/192/123 121/222/121
f 124/193/124 91/195/91 120/223/120
f 74/201/74 126/196/126 129/202/129
f 127/198/127 89/199/89 128/200/128
f 127/198/127 75/197/75 89/199/89
f 120/223/120 60/224/60 124/193/124
f 60/224/60 61/203/61 124/193/124
f 117/225/117 121/222/121 123/192/123
f 119/226/119 117/227/117 123/192/123
f 118/185/118 129/202/129 126/196/126
f 131/205/131 121/189/121 117/228/117
f 123/192/123 122/191/122 119/226/119
f 118/185/118 126/196/126 130/204/130
f 129/202/129 118/185/118 119/226/119
f 119/226/119 122/191/122 129/202/129
f 128/200/128 44/85/44 127/198/127
f 120/187/120 131/205/131 60/161/60
f 125/194/125 124/193/124 61/203/61
f 127/198/127 44/85/44 130/204/130
f 47/88/47 135/217/135 46/87/46
f 135/217/135 118/185/118 46/87/46
f 132/206/132 131/205/131 117/228/117
f 47/229/47 132/206/132 135/230/135
f 46/87/46 118/185/118 130/204/130
f 117/228/117 135/230/135 132/206/132
f 131/205/131 132/206/132 60/161/60
f 132/206/132 47/229/47 45/162/45
f 44/85/44 46/87/46 130/204/130
usemtl garrison_mouth
f 42/231/42 30/232/30 37/233/37
f 30/232/30 42/231/42 34/234/34
f 28/235/28 42/231/42 29/236/29
f 42/231/42 28/235/28 34/234/34
usemtl garrison_glasses
f 136/237/136 137/238/137 138/239/138
f 139/240/139 140/241/140 141/242/141
f 137/243/137 141/244/141 138/245/138
f 137/243/137 139/246/139 141/244/141
